{
    "asset" : {
        "generator" : "Khronos glTF Blender I/O v1.8.19",
        "version" : "2.0"
    },
    "scene" : 0,
    "scenes" : [
        {
            "name" : "Scene",
            "nodes" : [
                0
            ]
        }
    ],
    "nodes" : [
        {
            "mesh" : 0,
            "name" : "SheildObject",
            "translation" : [
                0.09237922728061676,
                0.1984713077545166,
                0.026241198182106018
            ]
        }
    ],
    "materials" : [
        {
            "doubleSided" : true,
            "emissiveFactor" : [
                0.5,
                0.5,
                0.5
            ],
            "name" : "White",
            "pbrMetallicRoughness" : {
                "metallicFactor" : 0.5,
                "roughnessFactor" : 0.5
            }
        },
        {
            "doubleSided" : true,
            "name" : "FlatYellow",
            "pbrMetallicRoughness" : {
                "baseColorFactor" : [
                    1,
                    0.6375967860221863,
                    0.0015178322792053223,
                    1
                ],
                "metallicFactor" : 0,
                "roughnessFactor" : 0.5
            }
        },
        {
            "doubleSided" : true,
            "name" : "FlatRed",
            "pbrMetallicRoughness" : {
                "baseColorFactor" : [
                    0.3139888048171997,
                    0.028425952419638634,
                    0.04373503848910332,
                    1
                ],
                "metallicFactor" : 0,
                "roughnessFactor" : 0.5
            }
        },
        {
            "doubleSided" : true,
            "emissiveFactor" : [
                0.5,
                0.5,
                0.5
            ],
            "name" : "Material.001",
            "pbrMetallicRoughness" : {
                "metallicFactor" : 0.5,
                "roughnessFactor" : 0.5
            }
        },
        {
            "doubleSided" : true,
            "emissiveFactor" : [
                0.5,
                0.5,
                0.5
            ],
            "name" : "SVGMat.002",
            "pbrMetallicRoughness" : {
                "metallicFactor" : 0.5,
                "roughnessFactor" : 0.5
            }
        }
    ],
    "meshes" : [
        {
            "name" : "ShieldMesh",
            "primitives" : [
                {
                    "attributes" : {
                        "POSITION" : 0,
                        "NORMAL" : 1,
                        "TEXCOORD_0" : 2
                    },
                    "indices" : 3,
                    "material" : 0
                },
                {
                    "attributes" : {
                        "POSITION" : 4,
                        "NORMAL" : 5,
                        "TEXCOORD_0" : 6
                    },
                    "indices" : 7,
                    "material" : 1
                },
                {
                    "attributes" : {
                        "POSITION" : 8,
                        "NORMAL" : 9,
                        "TEXCOORD_0" : 10
                    },
                    "indices" : 11,
                    "material" : 2
                },
                {
                    "attributes" : {
                        "POSITION" : 12,
                        "NORMAL" : 13,
                        "TEXCOORD_0" : 14
                    },
                    "indices" : 15,
                    "material" : 3
                },
                {
                    "attributes" : {
                        "POSITION" : 16,
                        "NORMAL" : 17,
                        "TEXCOORD_0" : 18
                    },
                    "indices" : 19,
                    "material" : 4
                }
            ]
        }
    ],
    "accessors" : [
        {
            "bufferView" : 0,
            "componentType" : 5126,
            "count" : 455,
            "max" : [
                1.048661470413208,
                0.5557291507720947,
                1.5556930303573608
            ],
            "min" : [
                -1.0163202285766602,
                0.13330817222595215,
                1.0327237844467163
            ],
            "type" : "VEC3"
        },
        {
            "bufferView" : 1,
            "componentType" : 5126,
            "count" : 455,
            "type" : "VEC3"
        },
        {
            "bufferView" : 2,
            "componentType" : 5126,
            "count" : 455,
            "type" : "VEC2"
        },
        {
            "bufferView" : 3,
            "componentType" : 5123,
            "count" : 459,
            "type" : "SCALAR"
        },
        {
            "bufferView" : 4,
            "componentType" : 5126,
            "count" : 410,
            "max" : [
                1.3998706340789795,
                0.04536306858062744,
                2.130514144897461
            ],
            "min" : [
                -1.3916583061218262,
                -0.08506596088409424,
                -1.969896674156189
            ],
            "type" : "VEC3"
        },
        {
            "bufferView" : 5,
            "componentType" : 5126,
            "count" : 410,
            "type" : "VEC3"
        },
        {
            "bufferView" : 6,
            "componentType" : 5126,
            "count" : 410,
            "type" : "VEC2"
        },
        {
            "bufferView" : 7,
            "componentType" : 5123,
            "count" : 750,
            "type" : "SCALAR"
        },
        {
            "bufferView" : 8,
            "componentType" : 5126,
            "count" : 439,
            "max" : [
                1.034708023071289,
                -0.020717978477478027,
                1.6176010370254517
            ],
            "min" : [
                -1.0511932373046875,
                -0.06432223320007324,
                -1.356258749961853
            ],
            "type" : "VEC3"
        },
        {
            "bufferView" : 9,
            "componentType" : 5126,
            "count" : 439,
            "type" : "VEC3"
        },
        {
            "bufferView" : 10,
            "componentType" : 5126,
            "count" : 439,
            "type" : "VEC2"
        },
        {
            "bufferView" : 11,
            "componentType" : 5123,
            "count" : 864,
            "type" : "SCALAR"
        },
        {
            "bufferView" : 12,
            "componentType" : 5126,
            "count" : 1472,
            "max" : [
                0.9096747636795044,
                0.5558125972747803,
                -1.2031859159469604
            ],
            "min" : [
                -0.8796271681785583,
                0.2379927635192871,
                -1.7266141176223755
            ],
            "type" : "VEC3"
        },
        {
            "bufferView" : 13,
            "componentType" : 5126,
            "count" : 1472,
            "type" : "VEC3"
        },
        {
            "bufferView" : 14,
            "componentType" : 5126,
            "count" : 1472,
            "type" : "VEC2"
        },
        {
            "bufferView" : 15,
            "componentType" : 5123,
            "count" : 1776,
            "type" : "SCALAR"
        },
        {
            "bufferView" : 16,
            "componentType" : 5126,
            "count" : 4765,
            "max" : [
                0.5125799775123596,
                -0.002859354019165039,
                0.7281652688980103
            ],
            "min" : [
                -0.5655222535133362,
                -0.05271005630493164,
                -0.7084720730781555
            ],
            "type" : "VEC3"
        },
        {
            "bufferView" : 17,
            "componentType" : 5126,
            "count" : 4765,
            "type" : "VEC3"
        },
        {
            "bufferView" : 18,
            "componentType" : 5126,
            "count" : 4765,
            "type" : "VEC2"
        },
        {
            "bufferView" : 19,
            "componentType" : 5123,
            "count" : 8760,
            "type" : "SCALAR"
        }
    ],
    "bufferViews" : [
        {
            "buffer" : 0,
            "byteLength" : 5460,
            "byteOffset" : 0
        },
        {
            "buffer" : 0,
            "byteLength" : 5460,
            "byteOffset" : 5460
        },
        {
            "buffer" : 0,
            "byteLength" : 3640,
            "byteOffset" : 10920
        },
        {
            "buffer" : 0,
            "byteLength" : 918,
            "byteOffset" : 14560
        },
        {
            "buffer" : 0,
            "byteLength" : 4920,
            "byteOffset" : 15480
        },
        {
            "buffer" : 0,
            "byteLength" : 4920,
            "byteOffset" : 20400
        },
        {
            "buffer" : 0,
            "byteLength" : 3280,
            "byteOffset" : 25320
        },
        {
            "buffer" : 0,
            "byteLength" : 1500,
            "byteOffset" : 28600
        },
        {
            "buffer" : 0,
            "byteLength" : 5268,
            "byteOffset" : 30100
        },
        {
            "buffer" : 0,
            "byteLength" : 5268,
            "byteOffset" : 35368
        },
        {
            "buffer" : 0,
            "byteLength" : 3512,
            "byteOffset" : 40636
        },
        {
            "buffer" : 0,
            "byteLength" : 1728,
            "byteOffset" : 44148
        },
        {
            "buffer" : 0,
            "byteLength" : 17664,
            "byteOffset" : 45876
        },
        {
            "buffer" : 0,
            "byteLength" : 17664,
            "byteOffset" : 63540
        },
        {
            "buffer" : 0,
            "byteLength" : 11776,
            "byteOffset" : 81204
        },
        {
            "buffer" : 0,
            "byteLength" : 3552,
            "byteOffset" : 92980
        },
        {
            "buffer" : 0,
            "byteLength" : 57180,
            "byteOffset" : 96532
        },
        {
            "buffer" : 0,
            "byteLength" : 57180,
            "byteOffset" : 153712
        },
        {
            "buffer" : 0,
            "byteLength" : 38120,
            "byteOffset" : 210892
        },
        {
            "buffer" : 0,
            "byteLength" : 17520,
            "byteOffset" : 249012
        }
    ],
    "buffers" : [
        {
            "byteLength" : 266532,
            "uri" : "data:application/octet-stream;base64,"
        }
    ]
}
