{
    "asset" : {
        "generator" : "Khronos glTF Blender I/O v1.8.19",
        "version" : "2.0"
    },
    "scene" : 0,
    "scenes" : [
        {
            "name" : "Scene",
            "nodes" : [
                0
            ]
        }
    ],
    "nodes" : [
        {
            "mesh" : 0,
            "name" : "SheildObject",
            "scale" : [
                1.494197964668274,
                1.494197964668274,
                1.494197964668274
            ],
            "translation" : [
                0.03607285022735596,
                3.4178459644317627,
                -0.2306310534477234
            ]
        }
    ],
    "materials" : [
        {
            "doubleSided" : true,
            "emissiveFactor" : [
                0.5,
                0.5,
                0.5
            ],
            "name" : "White",
            "pbrMetallicRoughness" : {
                "metallicFactor" : 0.5,
                "roughnessFactor" : 0.5
            }
        },
        {
            "doubleSided" : true,
            "name" : "FlatYellow",
            "pbrMetallicRoughness" : {
                "baseColorFactor" : [
                    1,
                    0.6375967860221863,
                    0.0015178322792053223,
                    1
                ],
                "metallicFactor" : 0,
                "roughnessFactor" : 0.5
            }
        },
        {
            "doubleSided" : true,
            "name" : "FlatRed",
            "pbrMetallicRoughness" : {
                "baseColorFactor" : [
                    0.3139888048171997,
                    0.028425952419638634,
                    0.04373503848910332,
                    1
                ],
                "metallicFactor" : 0,
                "roughnessFactor" : 0.5
            }
        },
        {
            "doubleSided" : true,
            "emissiveFactor" : [
                0.5,
                0.5,
                0.5
            ],
            "name" : "Material.001",
            "pbrMetallicRoughness" : {
                "metallicFactor" : 0.5,
                "roughnessFactor" : 0.5
            }
        },
        {
            "doubleSided" : true,
            "emissiveFactor" : [
                0.5,
                0.5,
                0.5
            ],
            "name" : "SVGMat.001",
            "pbrMetallicRoughness" : {
                "metallicFactor" : 0.5,
                "roughnessFactor" : 0.5
            }
        }
    ],
    "meshes" : [
        {
            "name" : "ShieldMesh",
            "primitives" : [
                {
                    "attributes" : {
                        "POSITION" : 0,
                        "NORMAL" : 1,
                        "TEXCOORD_0" : 2
                    },
                    "indices" : 3,
                    "material" : 0
                },
                {
                    "attributes" : {
                        "POSITION" : 4,
                        "NORMAL" : 5,
                        "TEXCOORD_0" : 6
                    },
                    "indices" : 7,
                    "material" : 1
                },
                {
                    "attributes" : {
                        "POSITION" : 8,
                        "NORMAL" : 9,
                        "TEXCOORD_0" : 10
                    },
                    "indices" : 11,
                    "material" : 2
                },
                {
                    "attributes" : {
                        "POSITION" : 12,
                        "NORMAL" : 13,
                        "TEXCOORD_0" : 14
                    },
                    "indices" : 15,
                    "material" : 3
                },
                {
                    "attributes" : {
                        "POSITION" : 16,
                        "NORMAL" : 17,
                        "TEXCOORD_0" : 18
                    },
                    "indices" : 19,
                    "material" : 4
                }
            ]
        }
    ],
    "accessors" : [
        {
            "bufferView" : 0,
            "componentType" : 5126,
            "count" : 457,
            "max" : [
                1.4156453609466553,
                0.7950112819671631,
                2.1080703735351562
            ],
            "min" : [
                -1.353145718574524,
                0.3038056194782257,
                1.4080702066421509
            ],
            "type" : "VEC3"
        },
        {
            "bufferView" : 1,
            "componentType" : 5126,
            "count" : 457,
            "type" : "VEC3"
        },
        {
            "bufferView" : 2,
            "componentType" : 5126,
            "count" : 457,
            "type" : "VEC2"
        },
        {
            "bufferView" : 3,
            "componentType" : 5123,
            "count" : 459,
            "type" : "SCALAR"
        },
        {
            "bufferView" : 4,
            "componentType" : 5126,
            "count" : 406,
            "max" : [
                1.8702529668807983,
                0.05942481756210327,
                2.8774750232696533
            ],
            "min" : [
                -1.8662384748458862,
                -0.11515587568283081,
                -2.6109695434570312
            ],
            "type" : "VEC3"
        },
        {
            "bufferView" : 5,
            "componentType" : 5126,
            "count" : 406,
            "type" : "VEC3"
        },
        {
            "bufferView" : 6,
            "componentType" : 5126,
            "count" : 406,
            "type" : "VEC2"
        },
        {
            "bufferView" : 7,
            "componentType" : 5123,
            "count" : 750,
            "type" : "SCALAR"
        },
        {
            "bufferView" : 8,
            "componentType" : 5126,
            "count" : 439,
            "max" : [
                1.3814789056777954,
                -0.029025375843048096,
                2.190934658050537
            ],
            "min" : [
                -1.410522222518921,
                -0.0873902440071106,
                -1.7896084785461426
            ],
            "type" : "VEC3"
        },
        {
            "bufferView" : 9,
            "componentType" : 5126,
            "count" : 439,
            "type" : "VEC3"
        },
        {
            "bufferView" : 10,
            "componentType" : 5126,
            "count" : 439,
            "type" : "VEC2"
        },
        {
            "bufferView" : 11,
            "componentType" : 5123,
            "count" : 864,
            "type" : "SCALAR"
        },
        {
            "bufferView" : 12,
            "componentType" : 5126,
            "count" : 1474,
            "max" : [
                1.2231390476226807,
                0.7775009870529175,
                -1.5847187042236328
            ],
            "min" : [
                -1.175367832183838,
                0.4115380346775055,
                -2.2853331565856934
            ],
            "type" : "VEC3"
        },
        {
            "bufferView" : 13,
            "componentType" : 5126,
            "count" : 1474,
            "type" : "VEC3"
        },
        {
            "bufferView" : 14,
            "componentType" : 5126,
            "count" : 1474,
            "type" : "VEC2"
        },
        {
            "bufferView" : 15,
            "componentType" : 5123,
            "count" : 1776,
            "type" : "SCALAR"
        },
        {
            "bufferView" : 16,
            "componentType" : 5126,
            "count" : 746,
            "max" : [
                0.6827155351638794,
                -0.005121350288391113,
                1.0005269050598145
            ],
            "min" : [
                -0.7615253925323486,
                -0.07184708118438721,
                -0.9227434396743774
            ],
            "type" : "VEC3"
        },
        {
            "bufferView" : 17,
            "componentType" : 5126,
            "count" : 746,
            "type" : "VEC3"
        },
        {
            "bufferView" : 18,
            "componentType" : 5126,
            "count" : 746,
            "type" : "VEC2"
        },
        {
            "bufferView" : 19,
            "componentType" : 5123,
            "count" : 2190,
            "type" : "SCALAR"
        }
    ],
    "bufferViews" : [
        {
            "buffer" : 0,
            "byteLength" : 5484,
            "byteOffset" : 0
        },
        {
            "buffer" : 0,
            "byteLength" : 5484,
            "byteOffset" : 5484
        },
        {
            "buffer" : 0,
            "byteLength" : 3656,
            "byteOffset" : 10968
        },
        {
            "buffer" : 0,
            "byteLength" : 918,
            "byteOffset" : 14624
        },
        {
            "buffer" : 0,
            "byteLength" : 4872,
            "byteOffset" : 15544
        },
        {
            "buffer" : 0,
            "byteLength" : 4872,
            "byteOffset" : 20416
        },
        {
            "buffer" : 0,
            "byteLength" : 3248,
            "byteOffset" : 25288
        },
        {
            "buffer" : 0,
            "byteLength" : 1500,
            "byteOffset" : 28536
        },
        {
            "buffer" : 0,
            "byteLength" : 5268,
            "byteOffset" : 30036
        },
        {
            "buffer" : 0,
            "byteLength" : 5268,
            "byteOffset" : 35304
        },
        {
            "buffer" : 0,
            "byteLength" : 3512,
            "byteOffset" : 40572
        },
        {
            "buffer" : 0,
            "byteLength" : 1728,
            "byteOffset" : 44084
        },
        {
            "buffer" : 0,
            "byteLength" : 17688,
            "byteOffset" : 45812
        },
        {
            "buffer" : 0,
            "byteLength" : 17688,
            "byteOffset" : 63500
        },
        {
            "buffer" : 0,
            "byteLength" : 11792,
            "byteOffset" : 81188
        },
        {
            "buffer" : 0,
            "byteLength" : 3552,
            "byteOffset" : 92980
        },
        {
            "buffer" : 0,
            "byteLength" : 8952,
            "byteOffset" : 96532
        },
        {
            "buffer" : 0,
            "byteLength" : 8952,
            "byteOffset" : 105484
        },
        {
            "buffer" : 0,
            "byteLength" : 5968,
            "byteOffset" : 114436
        },
        {
            "buffer" : 0,
            "byteLength" : 4380,
            "byteOffset" : 120404
        }
    ],
    "buffers" : [
        {
            "byteLength" : 124784,
            "uri" : "data:application/octet-stream;base64,"
        }
    ]
}
